<svg id="visual" viewBox="0 0 960 540" width="960" height="540" xmlns="http://www.w3.org/2000/svg" xmlns:xlink="http://www.w3.org/1999/xlink" version="1.1"><rect x="0" y="0" width="960" height="540" fill="#F4CDE2"></rect><defs><linearGradient id="grad1_0" x1="43.8%" y1="100%" x2="100%" y2="0%"><stop offset="14.444444444444446%" stop-color="#f4cde2" stop-opacity="1"></stop><stop offset="85.55555555555554%" stop-color="#f4cde2" stop-opacity="1"></stop></linearGradient></defs><defs><linearGradient id="grad2_0" x1="0%" y1="100%" x2="56.3%" y2="0%"><stop offset="14.444444444444446%" stop-color="#f4cde2" stop-opacity="1"></stop><stop offset="85.55555555555554%" stop-color="#f4cde2" stop-opacity="1"></stop></linearGradient></defs><g transform="translate(960, 540)"><path d="M-216 0C-215 -29.7 -214 -59.5 -199.6 -82.7C-185.1 -105.8 -157.2 -122.4 -132.9 -132.9C-108.7 -143.5 -88.1 -147.9 -66.6 -160.8C-45 -173.6 -22.5 -194.8 0 -216L0 0Z" fill="#12020A"></path></g><g transform="translate(0, 0)"><path d="M216 0C201.6 26.7 187.1 53.4 169.1 70C151 86.7 129.3 93.3 116.7 116.7C104.1 140.1 100.6 180.2 82.7 199.6C64.7 218.9 32.4 217.5 0 216L0 0Z" fill="#12020A"></path></g></svg>